<?xml version="1.0" encoding="UTF-8" standalone="no"?>
<!DOCTYPE svg PUBLIC "-//W3C//DTD SVG 1.1//EN" "http://www.w3.org/Graphics/SVG/1.1/DTD/svg11.dtd">
<svg width="100%" height="100%" viewBox="0 0 870 707" version="1.1" xmlns="http://www.w3.org/2000/svg" xmlns:xlink="http://www.w3.org/1999/xlink" xml:space="preserve" xmlns:serif="http://www.serif.com/" style="fill-rule:evenodd;clip-rule:evenodd;stroke-linejoin:round;stroke-miterlimit:2;">
    <g transform="matrix(1,0,0,1,-105.002,-186.509)">
        <g id="Mekie-Logo" serif:id="Mekie Logo" transform="matrix(2.15735,0,0,2.15735,-378.055,86.11)">
            <path d="M515.662,76.233C371.686,-6.631 230.127,93.497 264.653,258.188C232.524,90.849 397.315,32.514 486.383,91.358C490.913,94.35 496.901,93.472 500.501,89.409C505.137,84.175 510.435,80.155 516.352,77.269" style="fill:white;fill-rule:nonzero;"/>
            <path d="M531.684,123.979C533.331,122.165 535.122,120.488 537.055,118.949C542.662,114.485 550.964,116.111 554.298,122.454C584.841,180.548 579.974,244.795 551.13,313.206C549.593,316.854 546.237,319.518 542.306,319.984C538.497,320.435 534.651,320.282 530.77,319.567C523.515,318.227 519.651,310.148 522.88,303.514C549.024,249.809 558.49,184.439 530.519,137.558C527.936,133.228 528.296,127.712 531.684,123.979Z" style="fill:white;fill-rule:nonzero;"/>
            <path d="M559.165,331.73C559.095,331.744 559.025,331.76 558.956,331.775C464.365,351.81 330.865,155.415 223.912,312.395C356.494,219.173 461.455,365.221 559.165,331.73Z" style="fill:white;fill-rule:nonzero;"/>
            <path d="M267.761,304.453C388.949,278.213 528.436,457.752 627.182,324.479C505.994,408.724 381.698,260.259 267.761,304.453Z" style="fill:white;fill-rule:nonzero;"/>
            <path d="M444.191,275.106C414.59,239.561 377.516,219.558 332.671,215.72C317.133,214.339 319.55,188.099 333.706,188.099C373.919,187.685 407.746,199.017 434.524,223.316C459.276,136.65 507.7,83.039 573.321,53.445C593.116,48.727 598.64,73.817 584.37,82.103C517.203,117.745 465.908,166.867 468.36,261.641C467.325,276.832 451.442,280.976 444.191,275.106Z" style="fill:white;fill-rule:nonzero;"/>
        </g>
    </g>
</svg>
